# xmcd
#
# Track frame offsets:
#	150
#	14050
#	28230
#	43555
#	58252
#	74797
#	87802
#	98840
#	113247
#	129877
#	143560
#	156902
#	168147
#	184515
#	201200
#	214282
#	230582
#	246357
#
# Disc length: 3482 seconds
#
# Revision: 0
# Processed by: cddbd v1.4PL0 Copyright (c) Steve Scherf et al.
# Submitted via: EasyCDDAExtractor 4.6.9.1
#
DISCID=050d9812
DTITLE=Olivia Newton-John - Best Selection
DYEAR=1900
DGENRE=Pop
TTITLE0=Jolene
TTITLE1=It's So Easy
TTITLE2=Please Mr. Please
TTITLE3=Something Better To Do
TTITLE4=Come On Over
TTITLE5=If Not For You
TTITLE6=Let It Shine
TTITLE7=If You Love Me Let Me Know
TTITLE8=Smile For Me
TTITLE9=Follow Me
TTITLE10=Let Me Be There
TTITLE11=Changes
TTITLE12=Don't Stop Believin'
TTITLE13=Sam
TTITLE14=Loving Arms
TTITLE15=I Honestly Love You
TTITLE16=Have You Never Been Mellow
TTITLE17=Take Me Home, Country Roads
EXTD=
EXTT0=
EXTT1=
EXTT2=
EXTT3=
EXTT4=
EXTT5=
EXTT6=
EXTT7=
EXTT8=
EXTT9=
EXTT10=
EXTT11=
EXTT12=
EXTT13=
EXTT14=
EXTT15=
EXTT16=
EXTT17=
PLAYORDER=
